<?xml version="1.0" encoding="utf-8"?>
<!-- Generator: Adobe Illustrator 24.3.0, SVG Export Plug-In . SVG Version: 6.00 Build 0)  -->
<svg version="1.1" id="Layer_1" xmlns="http://www.w3.org/2000/svg" xmlns:xlink="http://www.w3.org/1999/xlink" x="0px" y="0px"
	 viewBox="0 0 512 512" style="enable-background:new 0 0 512 512;" xml:space="preserve">
<style type="text/css">
	.st0{fill:url(#SVGID_1_);}
	.st1{fill:url(#SVGID_2_);}
	.st2{fill:url(#SVGID_3_);}
</style>
<linearGradient id="SVGID_1_" gradientUnits="userSpaceOnUse" x1="42.9672" y1="42.8603" x2="469.0334" y2="468.9265" gradientTransform="matrix(1 0 0 -1 0 511.8898)">
	<stop  offset="0" style="stop-color:#FFD600"/>
	<stop  offset="0.5" style="stop-color:#FF0100"/>
	<stop  offset="1" style="stop-color:#D800B9"/>
</linearGradient>
<path class="st0" d="M510.5,150.5c-1.2-27.2-5.6-45.9-11.9-62.1C492.1,71.2,482.1,55.8,469,43c-12.8-13-28.3-23.1-45.3-29.5
	c-16.3-6.3-34.9-10.6-62.1-11.9C334.2,0.3,325.5,0,256,0s-78.2,0.3-105.5,1.5c-27.2,1.2-45.9,5.6-62.1,11.9
	C71.2,19.9,55.8,29.9,43,43c-13,12.8-23.1,28.3-29.5,45.3c-6.3,16.3-10.6,34.9-11.9,62.1C0.3,177.8,0,186.5,0,256
	c0,69.5,0.3,78.2,1.5,105.6c1.2,27.2,5.6,45.9,11.9,62.1c6.4,17.1,16.5,32.6,29.5,45.3c12.8,13,28.3,23.1,45.3,29.5
	c16.3,6.3,34.9,10.7,62.1,11.9c27.3,1.2,36,1.5,105.5,1.5s78.2-0.3,105.5-1.5c27.2-1.2,45.9-5.6,62.1-11.9
	c34.4-13.3,61.6-40.5,74.9-74.9c6.3-16.3,10.7-34.9,11.9-62.1c1.2-27.3,1.5-36,1.5-105.5C512,186.5,511.7,177.8,510.5,150.5z
	 M464.4,359.4c-1.1,25-5.3,38.5-8.8,47.5c-8.6,22.3-26.3,40-48.6,48.6c-9,3.5-22.6,7.7-47.5,8.8c-27,1.2-35.1,1.5-103.4,1.5
	c-68.4,0-76.5-0.3-103.4-1.5c-25-1.1-38.5-5.3-47.5-8.8c-11.1-4.1-21.2-10.6-29.4-19.2c-8.5-8.3-15-18.3-19.2-29.4
	c-3.5-9-7.7-22.6-8.8-47.5c-1.2-27-1.5-35.1-1.5-103.4c0-68.4,0.3-76.5,1.5-103.4c1.1-25,5.3-38.5,8.8-47.5
	c4.1-11.1,10.7-21.2,19.2-29.4c8.3-8.5,18.3-15,29.4-19.1c9-3.5,22.6-7.7,47.5-8.8c27-1.2,35.1-1.5,103.4-1.5h0
	c68.4,0,76.5,0.3,103.4,1.5c25,1.1,38.5,5.3,47.5,8.8c11.1,4.1,21.2,10.6,29.4,19.1c8.5,8.3,15,18.3,19.1,29.4
	c3.5,9,7.7,22.6,8.8,47.5c1.2,27,1.5,35.1,1.5,103.4C465.9,324.4,465.6,332.5,464.4,359.4z"/>
<linearGradient id="SVGID_2_" gradientUnits="userSpaceOnUse" x1="163.0424" y1="162.9353" x2="348.9532" y2="348.8462" gradientTransform="matrix(1 0 0 -1 0 511.8898)">
	<stop  offset="0" style="stop-color:#FF6400"/>
	<stop  offset="0.5" style="stop-color:#FF0100"/>
	<stop  offset="1" style="stop-color:#FD0056"/>
</linearGradient>
<path class="st1" d="M256,124.5c-72.6,0-131.5,58.9-131.5,131.5S183.4,387.5,256,387.5c72.6,0,131.5-58.9,131.5-131.5
	S328.6,124.5,256,124.5z M256,341.3c-47.1,0-85.3-38.2-85.3-85.3c0-47.1,38.2-85.3,85.3-85.3c47.1,0,85.3,38.2,85.3,85.3
	C341.3,303.1,303.1,341.3,256,341.3z"/>
<linearGradient id="SVGID_3_" gradientUnits="userSpaceOnUse" x1="370.9277" y1="370.821" x2="414.3735" y2="414.2668" gradientTransform="matrix(1 0 0 -1 0 511.8898)">
	<stop  offset="0" style="stop-color:#F30072"/>
	<stop  offset="1" style="stop-color:#E50097"/>
</linearGradient>
<path class="st2" d="M423.4,119.3c0,17-13.8,30.7-30.7,30.7c-17,0-30.7-13.8-30.7-30.7c0-17,13.8-30.7,30.7-30.7
	C409.6,88.6,423.4,102.4,423.4,119.3z"/>
</svg>
