<svg xmlns="http://www.w3.org/2000/svg" viewBox="0 0 512 512"><path d="M510.5 150.5c-1.2-27.2-5.6-45.9-11.9-62.1-6.5-17.2-16.5-32.6-29.6-45.4-12.8-13-28.3-23.1-45.3-29.5-16.3-6.3-34.9-10.6-62.1-11.9C334.2.3 325.5 0 256 0s-78.2.3-105.5 1.5c-27.2 1.2-45.9 5.6-62.1 11.9C71.2 19.9 55.8 29.9 43 43 30 55.8 19.9 71.3 13.5 88.3c-6.3 16.3-10.6 34.9-11.9 62.1C.3 177.8 0 186.5 0 256s.3 78.2 1.5 105.6c1.2 27.2 5.6 45.9 11.9 62.1 6.4 17.1 16.5 32.6 29.5 45.3 12.8 13 28.3 23.1 45.3 29.5 16.3 6.3 34.9 10.7 62.1 11.9 27.3 1.2 36 1.5 105.5 1.5s78.2-.3 105.5-1.5c27.2-1.2 45.9-5.6 62.1-11.9 34.4-13.3 61.6-40.5 74.9-74.9 6.3-16.3 10.7-34.9 11.9-62.1 1.2-27.3 1.5-36 1.5-105.5.3-69.5 0-78.2-1.2-105.5zm-46.1 208.9c-1.1 25-5.3 38.5-8.8 47.5-8.6 22.3-26.3 40-48.6 48.6-9 3.5-22.6 7.7-47.5 8.8-27 1.2-35.1 1.5-103.4 1.5-68.4 0-76.5-.3-103.4-1.5-25-1.1-38.5-5.3-47.5-8.8-11.1-4.1-21.2-10.6-29.4-19.2-8.5-8.3-15-18.3-19.2-29.4-3.5-9-7.7-22.6-8.8-47.5-1.2-27-1.5-35.1-1.5-103.4 0-68.4.3-76.5 1.5-103.4 1.1-25 5.3-38.5 8.8-47.5C60.7 94 67.3 83.9 75.8 75.7c8.3-8.5 18.3-15 29.4-19.1 9-3.5 22.6-7.7 47.5-8.8 27-1.2 35.1-1.5 103.4-1.5 68.4 0 76.5.3 103.4 1.5 25 1.1 38.5 5.3 47.5 8.8 11.1 4.1 21.2 10.6 29.4 19.1 8.5 8.3 15 18.3 19.1 29.4 3.5 9 7.7 22.6 8.8 47.5 1.2 27 1.5 35.1 1.5 103.4.1 68.4-.2 76.5-1.4 103.4z"/><path d="M256 124.5c-72.6 0-131.5 58.9-131.5 131.5S183.4 387.5 256 387.5 387.5 328.6 387.5 256 328.6 124.5 256 124.5zm0 216.8c-47.1 0-85.3-38.2-85.3-85.3s38.2-85.3 85.3-85.3 85.3 38.2 85.3 85.3-38.2 85.3-85.3 85.3zM423.4 119.3c0 17-13.8 30.7-30.7 30.7-17 0-30.7-13.8-30.7-30.7 0-17 13.8-30.7 30.7-30.7s30.7 13.8 30.7 30.7z"/></svg>